# xmcd
#
# Track frame offsets:
#	150
#	12759
#	28247
#	38436
#	50166
#	63995
#	76595
#	89593
#	101532
#	115542
#	129771
#	139487
#	152462
#	166862
#	178263
#	192433
#	205942
#	232471
#
# Disc length: 3114 seconds
#
# Revision: 1
# Processed by: cddbd v1.5.2PL0 Copyright (c) Steve Scherf et al.
# Submitted via: audiograbber 1.83.01
#
DISCID=ed0c2812
DTITLE=Chartbusters - Country 500 Vol.1d.2 8532-4
DYEAR=1900
DGENRE=karaoke
TTITLE0=Gene Autry - You Are My Sunshine
TTITLE1=Merle Haggard - Silver Wings
TTITLE2=Patsy Cline - Back in Baby's Arms
TTITLE3=Porter Wagoner - Y'all Come
TTITLE4=Roy Acuff - The Great Speckled Bird
TTITLE5=Ray Price - Crazy Arms
TTITLE6=Sons of the Pioneers - Ghost Riders in the Sky
TTITLE7=Eddy Arnold - Bouquet of Roses
TTITLE8=Wanda Jackson - The Window Up Above
TTITLE9=Red Foley - Smoke on the Water
TTITLE10=Margaret Whiting and Jimmy Wakely - Slipping Around
TTITLE11=Kitty Wells - Searching (For Someone Like You)
TTITLE12=Hawkshaw Hawkins - Slow Poke
TTITLE13=Faron Young - If You Ain't Lovin' (You Ain't Livin')
TTITLE14=Jack Greene - Statue of a Fool
TTITLE15=Hawksaw Hawkins - Dog House Boogie
TTITLE16=Roy Rogers - Happy Trails
TTITLE17=var - data
EXTD=
EXTT0=
EXTT1=
EXTT2=
EXTT3=
EXTT4=
EXTT5=
EXTT6=
EXTT7=
EXTT8=
EXTT9=
EXTT10=
EXTT11=
EXTT12=
EXTT13=
EXTT14=
EXTT15=
EXTT16=
EXTT17=
PLAYORDER=
